<!-- Generated by IcoMoon.io -->
<svg version="1.1" xmlns="http://www.w3.org/2000/svg" width="27" height="32" viewBox="0 0 27 32">
<path d="M26.438 26.063q0.125 0.25 0.125 0.438 0 0.438-0.344 0.781t-0.844 0.344h-24.25q-0.5 0-0.813-0.313t-0.313-0.813 0.25-0.75l11.938-20.688h0.063q0.375-0.688 1-0.688 0.75 0 1 0.563l12.063 20.875q0 0.063 0.031 0.063t0.031 0.063zM13.313 25.5q0.688 0 1.156-0.5t0.469-1.188-0.469-1.156-1.156-0.469-1.188 0.469-0.5 1.156 0.5 1.188 1.188 0.5zM14.938 10.938v0 0q0-0.625-0.688-0.625h-2q-0.625 0-0.625 0.625v9.063q0 0.688 0.688 0.688h1.938q0.688 0 0.688-0.688v0-9.063z"></path>
</svg>
