<?xml version="1.0" encoding="utf-8"?>
<svg xmlns="http://www.w3.org/2000/svg" width="32" height="32" viewBox="0 0 32 32" fill="white">
    <path d="M23.813 6.438q0.813 0 0.813 0.813v1.5q0 0.063-0.125 0.188 0 0.063-0.125 0.125t-0.188 0.063l-11.75 6.875q-0.063 0-0.063 0.031t-0.063 0.031-0.063-0.063l-12.125-6.875q-0.125-0.125-0.125-0.188v-1.688q0-0.813 0.813-0.813h23zM24.563 11.438q0.063 0.063 0.063 0.125v11.063q0 0.188-0.125 0.188l-0.063 0.063q-0.063 0-0.125-0.063l-6.688-7.188v-0.188q0-0.125 0.063-0.125l6.625-3.875q0.125-0.125 0.25 0zM15.813 16.625l7.938 8.563q0.125 0.125 0 0.25t-0.188 0.125h-22.75q-0.125 0-0.375-0.125-0.125-0.125-0.125-0.188 0-0.125 0.063-0.188l8.875-8.188q0.125-0.125 0.25-0.063l2.375 1.375q0.438 0.25 1-0.063l2.625-1.563q0.125-0.125 0.313 0.063zM7.313 15.875l-7 6.438q-0.063 0.063-0.125 0.063h-0.063q-0.125-0.125-0.125-0.188v-10.438q0-0.063 0.125-0.188 0.125-0.063 0.188 0l6.938 4 0.125 0.125q0 0.125-0.063 0.188z"/>
</svg>