<svg version="1.1" xmlns="http://www.w3.org/2000/svg" width="32" height="32" viewBox="0 0 32 32" fill="#fefefe">
<path d="M3.563 16.5q-0.75-0.563-1.375-1.625-1.063-1.938-1.063-3.875 0-1.5 0.75-2.625 0.938-1.125 2.313-1.125 0.938 0 1.875 0.625 0.875 0.688 1.313 1.625 1.063 2.125 1.063 4.188 0 0.688-0.063 1.125-0.125 0.75-0.563 1.375-0.938 0.938-2.313 1-1.063 0-1.938-0.688zM5.688 21.75q-1 0-3.063 0.313-1.375 0.25-2.625 0.813v-6.188q1.438 1.438 3.875 1.438 0.75 0 1.125-0.063l-0.188 0.563q-0.125 0.375-0.125 0.813 0 0.813 0.313 1.313 0.188 0.375 0.688 1zM6.625 22.75q1.688 1.125 2.875 2.313 0.875 1 0.875 2.313v0.063h-8.75q-0.625 0-1.125-0.469t-0.5-1.156v-0.938q0.375-0.5 0.563-0.688 0.563-0.438 1-0.625 0.125-0.063 0.375-0.156t0.375-0.156q0.25-0.063 2.188-0.438 0.75-0.063 1.375-0.063h0.75zM21.438 4.563q0.688 0 1.156 0.469t0.469 1.156v19.625q0 0.688-0.469 1.156t-1.156 0.469h-9.063q0.188-0.688 0.188-1.438 0-1.625-0.813-2.875-0.875-1.188-1.875-2l-1.188-0.938q-0.375-0.375-0.563-0.625-0.313-0.438-0.313-0.875 0-0.5 0.313-1l0.563-0.75q0.063-0.063 0.469-0.375t0.594-0.5q0.438-0.438 0.813-1 0.813-1.188 0.813-3 0-0.813-0.25-1.813-0.313-0.875-0.625-1.313-0.5-0.75-0.75-1-0.188-0.188-0.75-0.563h2.125l2.188-1.25h-6.938q-1.25 0-3 0.313-1.625 0.375-3.063 1.563-0.063 0.063-0.156 0.188t-0.156 0.188v-2.188q0-0.688 0.5-1.156t1.125-0.469h19.813zM22.688 11.688v-1.813h-3.625v-3.625h-1.75v3.625h-3.688v1.813h3.688v3.625h1.75v-3.625h3.625z"></path>
</svg>
