<svg version="1.1" xmlns="http://www.w3.org/2000/svg" fill="#fefefe" width="32" height="32" viewBox="0 0 32 32">
<path d="M17.25 14.5q0-1.375-0.563-2.5h6.375v13.438q0 0.938-0.656 1.594t-1.594 0.656h-18.563q-0.938 0-1.594-0.656t-0.656-1.594v-13.438h6.375q-0.625 1.25-0.625 2.5 0 2.375 1.688 4.063t4.063 1.688 4.063-1.688 1.688-4.063zM20.813 4.313q0.938 0 1.594 0.656t0.656 1.594v4.5h-6.938q-1.813-2.313-4.625-2.313-2.75 0-4.563 2.313h-6.938v-4.5q0-0.938 0.656-1.594t1.594-0.656h18.563zM1.813 10v-4.5q-0.813 0.313-0.813 1.25v3.25h0.813zM3.188 10v-4.625h-0.75v4.625h0.75zM4.563 10v-4.625h-0.75v4.625h0.75zM5.938 6.75v-1.375h-0.813v4.625h0.813v-3.25zM21.875 8.625v-1.875q0-0.563-0.406-0.969t-0.969-0.406h-2.188q-0.563 0-0.969 0.406t-0.406 0.969v1.875q0 0.563 0.406 0.969t0.969 0.406h2.188q0.563 0 0.969-0.406t0.406-0.969zM11.5 19.563q-2.125 0-3.594-1.469t-1.469-3.594 1.469-3.594 3.594-1.469 3.594 1.469 1.469 3.594-1.469 3.594-3.594 1.469zM11.5 10.5q-1.688 0-2.844 1.156t-1.156 2.844 1.156 2.875 2.844 1.188 2.875-1.188 1.188-2.875-1.188-2.844-2.875-1.156z"></path>
</svg>
