<svg version="1.1" xmlns="http://www.w3.org/2000/svg" width="32" height="32" viewBox="0 0 32 32" fill="#fefefe">
<path d="M21.313 4.5q0.688 0 1.219 0.469t0.531 1.156v19.75q0 0.688-0.531 1.156t-1.219 0.469h-19.625q-0.688 0-1.188-0.469t-0.5-1.156v-19.75q0-0.688 0.5-1.156t1.188-0.469h19.625zM6.813 24.125v-11h-3.375v11h3.375zM5.125 11.625q0.813 0 1.406-0.594t0.594-1.406-0.594-1.406-1.406-0.594-1.406 0.594-0.594 1.406q0 0.875 0.563 1.438t1.438 0.563zM19.625 24.125v-6.063q0-2.5-0.844-3.844t-3.219-1.344-3.25 1.75h-0.063v-1.5h-3.25v11h3.375v-5.438q0-2.813 2.063-2.813 0.813 0 1.219 0.531t0.469 1 0.063 1.344v5.375h3.438z"></path>
</svg>
