<?xml version="1.0" encoding="utf-8"?>
<svg version="1.1" id="Layer_1" xmlns="http://www.w3.org/2000/svg" xmlns:xlink="http://www.w3.org/1999/xlink" x="0px"
     y="0px"
     viewBox="0 0 23.6 23.2" style="enable-background:new 0 0 23.6 23.2;" xml:space="preserve">
<style type="text/css">
	.st0{fill:#DBDCDD;}
	.st1{fill:#FFFFFF;}
	.st2{fill:#B1B3B5;}
	.st3{fill:#D71921;}
	.st4{fill:#FFFFFF;stroke:#FFFFFF;stroke-width:0.2;stroke-linecap:round;stroke-linejoin:round;}
</style>
    <g>
	<g>
		<g>
			<g>
				<path class="st0" d="M5.1,23.2c-0.5,0-0.9-0.4-0.9-0.9V0.9C4.2,0.4,4.6,0,5.1,0h10.2c0.9,0,2,0.5,2.6,1.1l4.6,4.6
					c0.6,0.6,1.1,1.8,1.1,2.6v14.1c0,0.5-0.4,0.9-0.8,0.9H5.1z"/>
                <path class="st1" d="M22.2,8.6c-0.4-0.1-1.7-0.3-4.2-0.3c-0.1,0-0.3-0.1-0.5-0.2c-0.1,0.1-1.7-1-1.7-1.7c0-4-0.4-4.9-0.9-5H5.7
					v20.4h16.5V8.6z"/>
                <path class="st2" d="M19.6,7c-0.2,0-2.7,0-2.7,0c-0.8,0-1.1-0.4-1.1-0.6c0,0.9,1.2,2.2,2.4,2.2c0,0,1.1,0,1.3,0
					c1.1,0,2.6,0,2.6,0.9v12.4H5.7c0,0-1.8,1.4-0.6,1.4h17.7c0.5,0,0.8-0.4,0.8-0.9V9.3C23.6,9.3,23.6,7,19.6,7z"/>
			</g>
		</g>
	</g>
        <path class="st0" d="M16.8,11.7H4.9v8.6h11.9c0.8,0,1.4-0.6,1.4-1.4v-5.8C18.2,12.3,17.6,11.7,16.8,11.7z"/>
        <path class="st3" d="M18.2,11.8c0-0.8-0.6-1.4-1.4-1.4H1.4C0.6,10.4,0,11,0,11.8v5.8C0,18.3,0.6,19,1.4,19h15.4
		c0.8,0,1.4-0.6,1.4-1.4V11.8z"/>
        <g>
		<path class="st4" d="M2.5,13.1c0-0.5,0.2-0.6,0.6-0.6h1.6c0.9,0,1.6,0.4,1.6,1.5c0,0.8-0.6,1.5-1.6,1.5H3.6v1.3
			c0,0.3-0.2,0.5-0.5,0.5c-0.3,0-0.5-0.2-0.5-0.5V13.1z M3.6,14.6h1c0.4,0,0.7-0.3,0.7-0.7c0-0.5-0.3-0.7-0.9-0.7H3.6V14.6z"/>
            <path class="st4" d="M7.3,13.1c0-0.5,0.2-0.6,0.6-0.6h1.3c1.2,0,2.2,0.5,2.2,2.3c0,1.5-0.8,2.3-2.2,2.3H7.9
			c-0.4,0-0.6-0.1-0.6-0.6V13.1z M8.3,16.3h0.9c0.8,0,1.1-0.8,1.1-1.5c0-0.9-0.3-1.5-1.1-1.5H8.3V16.3z"/>
            <path class="st4" d="M12.4,13.1c0-0.5,0.2-0.6,0.6-0.6h2.3c0.3,0,0.5,0.1,0.5,0.4c0,0.3-0.2,0.4-0.5,0.4h-1.9v1.1h1.6
			c0.3,0,0.5,0.1,0.5,0.4s-0.2,0.4-0.5,0.4h-1.6v1.5c0,0.3-0.2,0.5-0.5,0.5c-0.3,0-0.5-0.2-0.5-0.5V13.1z"/>
	</g>
</g>
</svg>
