<?xml version="1.0" encoding="utf-8"?>
<svg xmlns="http://www.w3.org/2000/svg" width="22" height="32" viewBox="0 0 22 32" fill="currentColor">
    <path d="M22.375 22.5q0.125 0.5-0.313 0.938l-3.125 3.125q-0.5 0.5-1.25 0.625h-0.438q-5.125 0-11.188-6.063t-6.063-11.625q0.125-0.75 0.625-1.25l3.188-3.125q0.313-0.313 0.75-0.313 0.625 0 0.938 0.625l2.563 4.75q0.438 0.875-0.313 1.625l-1.125 1.188q-0.125 0.125-0.125 0.313 0.063 1.563 2.938 4.438 1.25 1.25 2.375 2t1.625 0.875l0.5 0.125q0.063 0 0.25-0.188l1.375-1.313q0.438-0.438 1-0.438 0.313 0 0.625 0.188h0.063l4.563 2.688q0.438 0.25 0.563 0.813z"/>
</svg>