<svg version="1.1" xmlns="http://www.w3.org/2000/svg" width="18" height="32" viewBox="0 0 18 32" fill="currentColor">
<title>Pin</title>
<path d="M9 3.313q3.75 0 6.406 2.656t2.656 6.406q0 2.938-1.875 5.438l-5.625 9.813q-0.063 0.063-0.125 0.188t-0.125 0.188l-0.063 0.125v-0.063q-0.5 0.625-1.25 0.625-0.813 0-1.313-0.688v0q-0.063 0-0.063-0.063t-0.063-0.125l-5.75-10.063q-1.813-2.438-1.813-5.375 0-3.75 2.625-6.406t6.375-2.656zM8.938 16.938q1.813 0 3.125-1.313t1.313-3.125-1.313-3.125-3.125-1.313-3.125 1.313-1.313 3.125 1.313 3.125 3.125 1.313z"></path>
</svg>
