<svg version="1.1" xmlns="http://www.w3.org/2000/svg" width="32" height="32" viewBox="0 0 32 32" fill="#fefefe">
<path d="M10 22.5v-4.188h1v5.5h-1v-0.563q-0.563 0.688-1.188 0.688-0.438 0-0.625-0.438-0.063-0.188-0.063-0.813v-4.375h1v4.438q0 0.25 0.25 0.25t0.625-0.5zM4.438 17.438v-1.063h3.5v1.063h-1.188v6.375h-1.125v-6.375h-1.188zM11.313 12.563q-0.5 0-0.5-0.75v-2.375q0-0.75 0.5-0.75 0.438 0 0.438 0.75v2.375q0 0.75-0.438 0.75zM13.875 18.25q0.625 0 0.813 0.625 0.125 0.5 0.125 1.063v2.25q0 0.625-0.125 1.125-0.188 0.625-0.813 0.625-0.563 0-1-0.625v0.5h-1v-7.438h1v2.438q0.5-0.563 1-0.563zM13.813 22.25v-2.375q0-0.75-0.438-0.75-0.25 0-0.5 0.25v3.375q0.25 0.25 0.5 0.25 0.438 0 0.438-0.75zM17.125 18.25q0.813 0 1.188 0.563 0.313 0.438 0.313 1.25v1.188h-2.063v1q0 0.75 0.563 0.75 0.313 0 0.438-0.438v-0.625h1.063v0.125q0 0.188-0.031 0.375t-0.031 0.25q-0.125 0.375-0.25 0.625-0.438 0.625-1.188 0.625-0.688 0-1.188-0.625-0.375-0.5-0.375-1.25v-1.938q0-0.875 0.313-1.313 0.5-0.563 1.25-0.563zM17.563 20.375v-0.5q0-0.75-0.5-0.75t-0.5 0.75v0.5h1zM20.813 4.5q0.938 0 1.594 0.656t0.656 1.594v18.5q0 0.938-0.656 1.594t-1.594 0.656h-18.563q-0.938 0-1.594-0.656t-0.656-1.594v-18.5q0-0.938 0.656-1.594t1.594-0.656h18.563zM13.625 7.813v4.438q0 0.688 0.063 0.875 0.125 0.375 0.688 0.375t1.125-0.688v0.625h1.063v-5.625h-1.063v4.313q-0.375 0.438-0.625 0.438t-0.25-0.188v-4.563h-1zM9.813 9.688v1.938q0 0.875 0.313 1.313 0.375 0.563 1.188 0.563 0.688 0 1.188-0.563 0.313-0.438 0.313-1.313v-1.938q0-0.875-0.313-1.375-0.5-0.563-1.188-0.563-0.813 0-1.188 0.563-0.313 0.5-0.313 1.375zM7.063 5.938h-1.188l0.75 2.063q0.438 1.25 0.688 2.375v3.063h1.125v-3.063l1.313-4.438h-1.125l-0.75 2.938zM19.563 24.188q0.25-1 0.25-3.938t-0.25-3.938q-0.313-1.438-1.813-1.625-2.063-0.25-6.25-0.25-4.125 0-6.188 0.25-1.5 0.188-1.813 1.625-0.313 1.25-0.313 3.938t0.313 3.938q0.313 1.438 1.813 1.625 1.563 0.188 6.188 0.188 4.688 0 6.25-0.188 1.5-0.188 1.813-1.625z"></path>
</svg>
