<?xml version="1.0" encoding="UTF-8"?>
<svg width="592px" height="148px" viewBox="0 0 592 148" version="1.1" xmlns="http://www.w3.org/2000/svg" xmlns:xlink="http://www.w3.org/1999/xlink">
    <title>give-as-you-live-logo</title>
    <g id="Page-1" stroke="none" stroke-width="1" fill="none" fill-rule="evenodd">
        <g id="640" transform="translate(-24.000000, -166.000000)" fill-rule="nonzero">
            <g id="give-as-you-live-logo" transform="translate(24.000000, 166.000000)">
                <path d="M214.738347,37.3876652 C217.802362,37.3876652 219.07023,38.9735682 219.07023,42.1453745 C219.07023,51.6607929 212.836545,58.8502203 203.010566,58.8502203 C193.184587,58.8502203 186,50.9207048 186,40.6651983 C186,30.4096916 192.867619,22.4801762 203.010566,22.4801762 C210.406464,22.4801762 216.64015,25.969163 216.64015,29.5638766 C216.85146,31.2555066 215.583592,32.7356828 213.998757,32.9471366 L213.576134,32.9471366 C210.195152,32.9471366 209.561218,29.3524229 203.010566,29.3524229 C196.77688,29.3524229 193.712865,34.7444934 193.712865,40.7709251 C193.712865,46.7973569 196.671224,52.1894274 203.010566,52.1894274 C206.919826,52.1894274 211.357364,49.969163 211.357364,44.3656387 L206.285892,44.3656387 C204.384089,44.4713657 202.799254,42.9911894 202.693598,41.1938326 C202.587943,39.2907489 204.067122,37.7048458 205.863269,37.599119 L214.738347,37.3876652 Z M229.318832,24.9118943 C229.318832,27.2378855 227.522685,29.0352423 225.303916,29.0352423 C223.085146,28.9295154 221.288999,27.1321586 221.288999,24.9118943 C221.394655,22.6916299 223.190802,21.1057268 225.303916,21 C227.522685,21.1057268 229.213176,22.6916299 229.318832,24.9118943 Z M221.817278,35.6960352 C221.817278,33.3700441 223.296457,31.784141 225.303916,31.784141 C227.417029,31.784141 228.790553,33.3700441 228.790553,35.6960352 L228.790553,54.7268722 C228.790553,57.0528634 227.311374,58.6387665 225.303916,58.6387665 C223.190802,58.6387665 221.817278,57.0528634 221.817278,54.7268722 L221.817278,35.6960352 Z M231.220634,37.1762115 C230.903667,36.5418502 230.798011,35.8017621 230.798011,35.061674 C230.798011,33.1585903 232.382846,31.6784141 234.178993,31.5726872 L234.49596,31.5726872 C236.080795,31.5726872 237.243009,32.6299559 237.66563,34.0044053 L242.208825,48.0660793 L242.314481,48.0660793 L246.857675,34.0044053 C247.174642,32.5242291 248.548167,31.5726872 250.027346,31.5726872 C251.929149,31.4669603 253.513984,32.8414097 253.725295,34.7444934 L253.725295,35.061674 C253.725295,35.8017621 253.513984,36.5418502 253.302672,37.1762115 L246.223742,55.5726872 C245.484151,57.4757709 244.744562,58.5330397 242.420137,58.5330397 C240.095712,58.5330397 239.250466,57.3700441 238.616532,55.5726872 L231.220634,37.1762115 L231.220634,37.1762115 Z M261.332505,47.537445 C261.860783,51.0264318 264.713487,52.7180617 267.988813,52.7180617 C271.581106,52.7180617 274.222499,49.8634362 276.018645,49.8634362 C277.709136,49.969163 278.871348,51.3436123 278.871348,52.9295154 C278.871348,55.9955947 272.532008,58.9559471 267.354878,58.9559471 C259.325047,58.9559471 254.042263,53.1409692 254.042263,45.3171806 C254.042263,38.1277533 259.325047,31.5726872 266.826601,31.5726872 C274.539466,31.5726872 279.610939,38.6563877 279.610939,44.4713657 C279.610939,46.5859031 278.660037,47.6431718 276.546924,47.6431718 L261.332505,47.537445 L261.332505,47.537445 Z M272.426352,42.7797357 C272.003729,39.7136564 270.101927,37.2819383 266.720945,37.2819383 C263.445619,37.2819383 261.438161,39.6079295 261.015538,42.7797357 L272.426352,42.7797357 Z M312.998135,53.9867841 C312.998135,55.8898678 312.998135,58.6387665 309.617154,58.6387665 C307.50404,58.6387665 306.76445,57.4757709 306.236172,55.6784141 C304.545681,57.7929515 302.1156,58.9559471 299.579863,58.9559471 C292.923555,58.9559471 287.852082,53.246696 287.852082,45.3171806 C287.852082,37.4933921 293.134867,31.5726872 299.579863,31.5726872 C302.221256,31.4669603 304.756991,32.7356828 306.236172,34.8502203 C306.447483,33.1585903 307.926663,31.8898678 309.617154,31.8898678 C312.998135,31.8898678 312.998135,34.6387665 312.998135,36.5418502 L312.998135,53.9867841 L312.998135,53.9867841 Z M300.425109,52.400881 C304.123058,52.400881 305.919205,48.7004406 305.919205,45.3171806 C305.919205,41.9339207 304.123058,38.1277533 300.425109,38.1277533 C296.72716,38.1277533 294.719702,41.9339207 294.719702,45.3171806 C294.719702,48.7004406 296.621504,52.400881 300.425109,52.400881 Z M332.121815,39.7136564 C330.748291,39.7136564 328.106899,37.599119 325.676818,37.599119 C324.40895,37.599119 323.352392,38.2334802 323.352392,39.6079295 C323.352392,42.8854626 335.714108,42.3568282 335.714108,50.6035242 C335.714108,55.3612335 331.699192,58.9559471 325.571162,58.9559471 C321.556246,58.9559471 315.639528,56.6299559 315.639528,53.4581498 C315.745184,51.7665198 317.118707,50.4977973 318.703543,50.2863436 C321.45059,50.2863436 322.718459,52.6123348 325.993785,52.6123348 C328.212555,52.6123348 328.740833,51.8722467 328.740833,50.4977973 C328.740833,47.2202643 316.379117,47.7488987 316.379117,39.5022027 C316.379117,34.5330397 320.394034,31.2555066 325.993785,31.2555066 C329.480422,31.2555066 334.868862,32.9471366 334.868862,36.4361234 C334.974518,38.2334802 333.70665,39.6079295 332.121815,39.7136564 L332.121815,39.7136564 Z M342.898695,36.5418502 C342.687383,35.907489 342.581728,35.2731278 342.581728,34.6387665 C342.793039,32.8414097 344.272218,31.5726872 345.857054,31.5726872 C347.547545,31.5726872 348.921069,32.6299559 349.449347,34.0044053 L354.309509,47.431718 L359.592293,34.0044053 C360.120572,32.4185022 361.599751,31.4669603 363.184587,31.5726872 C364.980733,31.5726872 366.354257,32.9471366 366.565568,34.6387665 C366.565568,35.2731278 366.459913,35.907489 366.248602,36.5418502 L354.309509,66.2511013 C353.675575,67.7312776 352.619018,69 350.928527,69 C348.604102,69 347.230578,67.4140969 347.230578,65.9339207 C347.230578,65.1938326 347.44189,64.4537445 347.6532,63.8193833 L350.717216,56.1013216 L342.898695,36.5418502 L342.898695,36.5418502 Z M392.97949,45.2114538 C392.97949,52.6123348 387.908017,58.8502203 380.195152,58.8502203 C372.482287,58.8502203 367.410814,52.5066079 367.410814,45.2114538 C367.410814,38.0220264 372.693598,31.4669603 380.195152,31.4669603 C387.696706,31.3612335 392.97949,37.9162996 392.97949,45.2114538 L392.97949,45.2114538 Z M374.595401,45.2114538 C374.595401,48.5947136 376.391547,52.2951542 380.300808,52.2951542 C384.210068,52.2951542 386.006215,48.5947136 386.006215,45.2114538 C386.006215,41.8281939 384.210068,38.0220264 380.300808,38.0220264 C376.391547,37.9162996 374.595401,41.722467 374.595401,45.2114538 Z M395.93785,35.6960352 C395.93785,33.3700441 397.417029,31.784141 399.530143,31.784141 C401.748913,31.784141 403.016781,33.3700441 403.016781,35.6960352 L403.016781,48.3832599 C403.016781,50.9207048 405.129895,52.9295154 407.66563,52.9295154 C410.201367,52.9295154 412.208825,50.814978 412.208825,48.3832599 L412.208825,35.6960352 C412.208825,33.3700441 413.688005,31.784141 415.801119,31.784141 C418.019888,31.784141 419.393412,33.3700441 419.393412,35.6960352 L419.393412,48.4889868 C419.393412,54.8325991 415.167184,58.8502203 407.66563,58.8502203 C400.164077,58.8502203 396.043506,54.8325991 396.043506,48.4889868 L395.93785,35.6960352 Z M430.170292,26.6035242 C430.170292,24.4889868 431.860783,22.9030837 433.868241,22.9030837 C435.981355,22.9030837 437.56619,24.5947136 437.56619,26.6035242 L437.56619,51.4493392 L446.335613,51.4493392 C448.237415,51.3436123 449.716594,52.8237885 449.82225,54.5154185 L449.82225,54.938326 C449.716594,56.8414097 448.131759,58.215859 446.335613,58.215859 L433.973897,58.215859 C431.649472,58.215859 430.170292,56.6299559 430.170292,54.1982379 L430.170292,26.6035242 Z M458.486016,24.9118943 C458.486016,27.2378855 456.689869,29.0352423 454.4711,29.0352423 C452.25233,28.9295154 450.456184,27.1321586 450.456184,24.9118943 C450.561839,22.6916299 452.463642,21 454.682411,21.1057268 C456.689869,21.2114538 458.38036,22.7973569 458.486016,24.9118943 Z M450.984462,35.6960352 C450.984462,33.3700441 452.463642,31.784141 454.4711,31.784141 C456.584214,31.784141 458.063393,33.3700441 458.063393,35.6960352 L458.063393,54.7268722 C458.063393,57.0528634 456.584214,58.6387665 454.4711,58.6387665 C452.25233,58.6387665 450.984462,57.0528634 450.984462,54.7268722 L450.984462,35.6960352 Z M460.387818,37.1762115 C460.070851,36.5418502 459.965195,35.8017621 459.965195,35.061674 C459.965195,33.1585903 461.550031,31.6784141 463.346178,31.5726872 L463.663144,31.5726872 C465.24798,31.5726872 466.410193,32.6299559 466.832816,34.0044053 L471.37601,48.0660793 L471.481665,48.0660793 L476.02486,34.0044053 C476.341828,32.5242291 477.715351,31.5726872 479.194531,31.5726872 C481.096333,31.4669603 482.681168,32.8414097 482.89248,34.7444934 L482.89248,35.061674 C482.89248,35.8017621 482.681168,36.5418502 482.469857,37.1762115 L475.390926,55.5726872 C474.651336,57.4757709 473.911747,58.5330397 471.587321,58.5330397 C469.262896,58.5330397 468.417651,57.3700441 467.783716,55.5726872 L460.387818,37.1762115 L460.387818,37.1762115 Z M490.605345,47.537445 C491.133624,51.0264318 493.986327,52.7180617 497.261653,52.7180617 C500.853946,52.7180617 503.495339,49.8634362 505.291485,49.8634362 C506.981976,49.969163 508.144189,51.3436123 508.144189,52.9295154 C508.144189,55.9955947 501.804848,58.9559471 496.627719,58.9559471 C488.597887,58.9559471 483.315103,53.1409692 483.315103,45.3171806 C483.315103,38.1277533 488.597887,31.5726872 496.099441,31.5726872 C503.812306,31.5726872 508.883779,38.6563877 508.883779,44.4713657 C508.883779,46.5859031 507.932878,47.6431718 505.819764,47.6431718 L490.605345,47.537445 L490.605345,47.537445 Z M501.699192,42.7797357 C501.276569,39.7136564 499.374767,37.2819383 495.993785,37.2819383 C492.718459,37.2819383 490.711001,39.6079295 490.288378,42.7797357 L501.699192,42.7797357 L501.699192,42.7797357 Z M517.864512,22.4801762 C522.407707,22.4801762 526,26.1806167 526,30.6211454 C526,35.1674009 522.302051,38.7621145 517.864512,38.7621145 C513.426974,38.7621145 509.729025,35.061674 509.729025,30.6211454 C509.729025,26.1806167 513.321318,22.4801762 517.864512,22.4801762 L517.864512,22.4801762 Z M517.864512,36.753304 C521.245495,36.753304 524.098198,34.0044053 524.098198,30.5154185 C524.098198,27.0264318 521.35115,24.277533 517.864512,24.277533 C514.377874,24.277533 511.630827,27.0264318 511.630827,30.5154185 C511.630827,34.0044053 514.377874,36.753304 517.864512,36.753304 Z M516.7023,34.1101322 C516.7023,34.7444934 516.490988,35.1674009 515.645743,35.1674009 C514.800497,35.1674009 514.589186,34.8502203 514.589186,34.1101322 L514.589186,27.2378855 C514.589186,26.7092511 514.800497,26.2863436 515.645743,26.2863436 L518.075823,26.2863436 C519.87197,26.2863436 521.35115,26.814978 521.35115,28.8237885 C521.562461,29.9867841 520.717216,31.1497797 519.555003,31.1497797 L519.132381,31.1497797 L520.717216,33.6872247 C520.822872,33.7929515 520.822872,34.0044053 520.822872,34.1101322 C520.822872,34.6387665 520.505904,34.9559471 519.766314,34.9559471 C519.026725,34.9559471 518.815413,34.4273128 518.498446,33.8986784 L517.124923,31.3612335 L516.385332,31.3612335 L516.7023,34.1101322 L516.7023,34.1101322 Z M518.287135,29.9867841 C519.026725,29.9867841 519.449348,29.7753304 519.449348,28.9295154 C519.449348,28.0837004 519.026725,27.8722467 518.287135,27.8722467 L516.596644,27.8722467 L516.596644,29.8810573 L518.287135,29.9867841 Z" id="Shape" fill="#605B5E"></path>
                <path d="M111.132935,84.046867 C107.871747,83.8317626 105.031357,86.1979113 104.610558,89.53203 C101.664969,89.7471344 97.9829816,89.8546866 93.5645972,89.7471344 C93.1437988,86.1979113 90.0930098,83.6166582 86.6214221,84.046867 C83.1498343,84.4770759 80.6250433,87.5960902 81.0458418,91.2528655 C81.4666403,94.8020889 84.5174296,97.383342 87.9890172,96.953133 C90.303409,96.6304758 92.4074016,95.0171934 93.2489991,92.651044 C97.0361852,92.8661485 100.928572,92.8661485 104.715758,92.4359395 C105.767754,95.7700587 109.239343,97.7059983 112.60573,96.6304758 C115.866919,95.5549542 117.760512,92.0057309 116.708515,88.56406 C115.866919,86.0903591 113.657727,84.2619715 111.132935,84.046867" id="Path" fill="#605B5E"></path>
                <path d="M145.015037,14.692008 C122.40269,13.529624 113.378983,30.6483704 110.406468,38.7850585 C68.2604495,-47.020016 -77.2866321,27.795246 53.0793898,87.8165296 C78.876575,99.6517119 91.4036032,117.087472 97.454795,129.662354 C102.869019,139.595454 101.382761,133.572191 99.896504,128.394298 C104.036793,121.314323 109.344856,114.974047 115.502208,109.690483 C129.940139,97.6439577 152.87097,81.2649106 164.230225,64.7801918 C175.69564,48.4011444 174.634027,16.1714059 145.015037,14.692008 M121.128755,99.1233561 C111.680403,106.203331 104.142953,115.291061 98.9410521,125.752517 C87.9002817,93.734121 54.5656474,84.7520626 29.1931074,61.9270674 C12.6319515,47.1330891 12.1011452,15.6430495 46.3912308,10.4651571 C67.6234819,7.29501883 95.8623755,17.9678175 109.981823,39.7360999 C109.981823,39.7360999 110.512629,40.7928127 111.043436,40.158785 C147.562907,-10.3520839 187.904185,48.5068157 121.128755,99.1233561" id="Shape" fill="#44B4E4"></path>
                <path d="M148.080378,35.2605352 C148.080378,35.2605352 147.975249,35.2605352 148.080378,35.2605352 L147.975249,35.0494028 C147.659861,34.7327041 147.134213,34.5215715 146.713695,34.6271378 L146.608565,34.6271378 C146.188048,34.6271378 145.872659,34.6271378 145.45214,34.7327041 L144.611105,34.9438365 L144.505975,34.9438365 C144.400846,34.9438365 136.200745,39.1664859 115.174845,39.1664859 C100.772104,38.9553534 86.4744924,37.4774261 72.2820101,34.8382702 C66.9204057,33.8881742 63.2408733,33.2547767 61.0331538,32.938078 C58.2997868,29.3488261 54.8305135,26.2874053 51.0458515,23.9649481 L50.730463,23.7538157 C50.099686,23.437117 49.468909,23.2259844 48.8381321,23.1204183 C46.1047651,22.5925871 43.4765276,23.8593819 43.0560096,25.7595741 C42.6354916,27.7653325 44.6329521,29.8766572 47.366319,30.4044884 C48.6278731,30.7211871 49.889427,30.5100547 51.0458515,29.9822235 C53.1484414,31.565717 54.8305135,33.360343 56.4074559,35.3661014 L56.4074559,35.5772339 L56.5125854,35.6828001 L56.6177149,35.7883664 C61.0331538,41.3833768 67.0255352,52.0455664 71.3358446,71.5753198 C71.5461037,72.6309822 71.8614921,73.6866445 72.1768806,74.4256082 C72.4922692,75.3757043 72.4922692,76.4313666 72.3871396,77.3814628 C72.1768806,77.8037276 72.1768806,78.3315588 72.1768806,78.7538238 C72.3871396,80.1261848 73.7538231,81.076281 75.0153771,80.9707147 C90.4694133,78.4371251 106.238838,78.4371251 121.798004,80.9707147 C123.164687,81.1818471 124.426241,80.2317511 124.6365,78.7538238 C124.74163,78.3315588 126.949349,64.3968159 148.395767,38.5330884 C149.341932,37.6885586 149.131673,36.2106313 148.080378,35.2605352 M121.167227,45.9227249 C126.73909,45.7115924 132.100695,45.078195 137.567428,44.1280989 C133.887896,49.1952782 130.418622,54.4735899 127.369867,60.0686003 C124.6365,59.3296367 119.169767,58.6962393 111.074795,58.0628418 L111.074795,57.9572756 C111.810701,53.4179276 112.967126,46.450556 113.282515,45.6060261 C116.015881,45.7115924 118.644119,45.8171586 121.167227,45.9227249 M76.276931,71.5753198 C75.9615426,69.4639952 75.4358951,67.0359717 74.8051181,64.3968159 C77.4333556,64.0801172 81.743665,63.7634185 87.8411759,63.5522861 L87.8411759,67.563803 C87.8411759,70.4140912 87.9463053,72.525416 87.9463053,74.2144757 C84.1616434,74.5311744 80.482111,74.8478731 76.6974491,75.4812705 C76.6974491,75.3757043 76.276931,71.5753198 76.276931,71.5753198 L76.276931,71.5753198 Z M108.867076,45.2893274 C106.764485,49.0897119 105.502931,53.206795 104.767025,57.5350107 C100.982363,57.3238782 97.3028304,57.1127457 93.6232985,57.1127457 C93.4130396,52.4678314 92.6771328,47.8229171 91.4155788,43.3891352 C97.1977014,44.1280989 103.084953,44.8670625 108.867076,45.2893274 M86.1591039,42.5446054 L86.3693629,42.9668704 C87.2103988,44.7614963 87.6309169,49.5119768 87.9463053,57.1127457 C83.0052189,57.0071795 78.169262,57.4294444 73.3333051,58.1684081 C71.3358446,51.2010366 68.6024777,44.7614963 65.0280747,38.5330884 C70.1794201,39.7998833 77.748744,41.2778106 86.1591039,42.5446054 M92.7822622,74.1089094 C92.8873921,73.5810783 92.992521,72.9476809 92.992521,72.3142835 C93.4130396,69.4639952 93.6232985,66.5081406 93.7284274,63.6578522 C96.7771828,63.6578522 100.246457,63.6578522 103.82086,63.7634185 C103.505471,66.4025744 103.400341,69.2528627 103.400341,72.103151 L103.400341,74.1089094 C99.8259382,73.897777 96.3566652,74.0033433 92.7822622,74.1089094 M120.010802,75.4812705 C116.121011,74.8478731 112.23122,74.4256082 108.236298,74.2144757 C108.761946,71.9975848 109.392723,68.7250315 110.128629,63.7634185 C112.756867,63.8689848 115.595364,63.9745509 118.32873,64.1856834 C121.377486,64.3968159 123.480076,64.3968159 124.951889,64.5023821 C123.269816,68.0916341 121.587745,71.7864524 120.010802,75.4812705" id="Shape" fill="#605B5E"></path>
                <path d="M353.046103,76.6137121 C367.494696,76.6137121 377.93565,87.8796897 376.986472,102.620221 C375.93183,117.255463 364.858091,128.310862 349.987641,128.310862 C335.749977,128.310862 325.203558,117.150173 326.047272,102.514932 C327.207378,87.7744001 338.492046,76.6137121 353.046103,76.6137121 L353.046103,76.6137121 Z M350.304034,123.362254 C361.166845,123.362254 370.658621,114.939094 371.502334,102.409642 C372.346048,90.1960589 364.014378,81.141161 353.046103,81.141161 C342.077828,81.141161 332.691516,89.8801903 331.847802,102.409642 C331.004088,114.728515 339.441223,123.362254 350.304034,123.362254 Z M389.009389,103.041379 C391.013209,100.303852 395.020847,97.9874826 399.028486,97.9874826 C406.094587,97.9874826 411.051404,103.251958 409.891297,110.622224 L407.571085,127.152677 L402.508804,127.152677 L404.723553,110.727514 C405.567266,104.831301 401.454162,102.093774 397.446524,102.093774 C393.966206,102.093774 388.798461,104.726012 388.060212,110.727514 L385.739999,127.152677 L380.783183,127.152677 L384.790821,98.8297984 L387.427426,98.8297984 L389.009389,103.041379 L389.009389,103.041379 Z M420.015859,127.152677 L414.953578,127.152677 L421.914215,77.5613177 L426.554638,76.7190016 L427.081959,76.7190016 L420.015859,127.152677 Z M433.40981,98.8297984 L438.366627,98.8297984 L434.464452,127.152677 L429.507635,127.152677 L433.40981,98.8297984 L433.40981,98.8297984 Z M437.628377,83.3522408 C439.843125,83.3522408 441.530552,85.247452 441.319624,87.3532422 C441.108695,89.6696114 439.315804,91.248954 437.20652,91.248954 C434.991773,91.248954 433.304346,89.5643218 433.515274,87.3532422 C433.726202,85.0368729 435.41363,83.3522408 437.628377,83.3522408 Z M451.54965,103.041379 C453.553469,100.303852 457.561108,97.9874826 461.568747,97.9874826 C468.634847,97.9874826 473.591664,103.251958 472.431558,110.622224 L470.111346,127.152677 L465.049065,127.152677 L467.263813,110.727514 C468.107526,104.831301 463.994424,102.093774 459.986784,102.093774 C456.506466,102.093774 451.338721,104.726012 450.600472,110.727514 L448.28026,127.152677 L443.323444,127.152677 L447.331083,98.8297984 L449.967687,98.8297984 L451.54965,103.041379 L451.54965,103.041379 Z M482.134263,112.728014 C482.028799,113.149172 482.028799,113.57033 482.028799,113.991488 C482.028799,120.414149 487.407472,123.993991 493.102538,123.993991 C496.371927,123.993991 499.219461,123.046386 501.7506,121.361754 C502.48885,122.414649 503.227099,123.678123 503.965349,124.625728 C501.22328,126.942098 497.426569,127.994993 492.469752,127.994993 C483.82169,127.994993 477.28291,121.782912 477.28291,113.886198 C477.28291,104.199563 484.770867,97.8821928 492.997073,97.8821928 C501.22328,97.8821928 506.180096,104.515432 505.441847,112.728014 L482.134263,112.728014 L482.134263,112.728014 Z M500.48503,109.25346 C500.48503,105.147169 496.899248,101.988484 492.575217,101.988484 C487.302008,101.988484 483.505297,106.410643 482.872512,109.25346 L500.48503,109.25346 Z M511.769698,148 C522.843437,137.049891 534.76089,127.152677 546.151022,116.834305 C551.846087,111.56983 557.43569,106.410643 562.708898,100.830299 C568.087572,95.4605343 572.938924,89.5643218 577.36842,83.4575303 C579.477704,80.5094239 581.16513,77.2454491 582.536164,73.8761848 C583.9072,70.5069205 584.856377,66.9270771 585.594626,63.3472338 C587.071124,56.1875471 587.071124,48.7119919 585.278234,41.5523052 C583.590806,34.3926185 579.583168,27.9699584 573.993566,23.2319304 C571.146033,20.9155613 567.77118,19.02035 564.185397,17.7568759 C560.599615,16.3881123 556.908369,15.4405067 553.111658,15.0193486 C557.013833,14.9140592 560.916008,15.2299276 564.712718,16.1775332 C568.614893,17.1251388 572.306139,18.599192 575.680992,20.8102717 C579.055847,23.1266409 582.114308,25.9694577 584.43452,29.2334325 C586.754732,32.6026969 588.653087,36.2878297 589.813194,40.2888311 C591.078764,44.184543 591.711549,48.1855443 591.922477,52.2918353 C592.133406,56.2928367 591.922477,60.3991275 591.184228,64.4001289 C589.918657,72.5074212 586.860197,80.2988449 582.219772,87.0373736 C572.938924,100.093273 561.2324,110.622224 549.209483,120.519437 C537.081102,130.416652 524.4254,139.050391 511.769698,148 Z" id="Shape" fill="#44B4E4"></path>
            </g>
        </g>
    </g>
</svg>