<?xml version="1.0" encoding="UTF-8"?>
<svg width="640px" height="480px" viewBox="0 0 640 480" version="1.1" xmlns="http://www.w3.org/2000/svg" xmlns:xlink="http://www.w3.org/1999/xlink">
    <title>640</title>
    <g id="640" stroke="none" stroke-width="1" fill="none" fill-rule="evenodd">
        <g id="give-as-you-live-logo" transform="translate(0.000000, 160.000000)" fill-rule="nonzero">
            <path d="M232.105034,40.753304 C235.42138,40.753304 236.793661,42.4713656 236.793661,45.907489 C236.793661,56.215859 230.046613,64.0044053 219.411436,64.0044053 C208.776259,64.0044053 201,55.4140969 201,44.3039648 C201,33.1938326 208.433188,24.6035242 219.411436,24.6035242 C227.416408,24.6035242 234.163456,28.3832599 234.163456,32.277533 C234.392169,34.1101322 233.019888,35.7136564 231.304537,35.9427313 L230.84711,35.9427313 C227.187694,35.9427313 226.501554,32.0484581 219.411436,32.0484581 C212.664388,32.0484581 209.348042,37.8898678 209.348042,44.4185022 C209.348042,50.9471366 212.550031,56.7885463 219.411436,56.7885463 C223.642635,56.7885463 228.445618,54.3832599 228.445618,48.3127753 L222.956495,48.3127753 C220.898073,48.4273128 219.182722,46.8237885 219.068365,44.876652 C218.954009,42.814978 220.555003,41.0969163 222.499068,40.9823789 L232.105034,40.753304 Z M247.886265,27.2378855 C247.886265,29.7577093 245.9422,31.7048458 243.540709,31.7048458 C241.139217,31.5903084 239.195152,29.6431718 239.195152,27.2378855 C239.309509,24.8325991 241.253574,23.1145374 243.540709,23 C245.9422,23.1145374 247.771908,24.8325991 247.886265,27.2378855 Z M239.766936,38.9207048 C239.766936,36.4008811 241.36793,34.6828194 243.540709,34.6828194 C245.827843,34.6828194 247.314481,36.4008811 247.314481,38.9207048 L247.314481,59.5374449 C247.314481,62.0572687 245.713487,63.7753304 243.540709,63.7753304 C241.253574,63.7753304 239.766936,62.0572687 239.766936,59.5374449 L239.766936,38.9207048 Z M249.944686,40.5242291 C249.601616,39.8370044 249.487259,39.0352423 249.487259,38.2334802 C249.487259,36.1718062 251.20261,34.5682819 253.146675,34.4537445 L253.489745,34.4537445 C255.205096,34.4537445 256.463021,35.5991189 256.920447,37.0881057 L261.837787,52.3215859 L261.952144,52.3215859 L266.869484,37.0881057 C267.212554,35.4845815 268.699192,34.4537445 270.300186,34.4537445 C272.358608,34.339207 274.073959,35.8281938 274.302672,37.8898678 L274.302672,38.2334802 C274.302672,39.0352423 274.073959,39.8370044 273.845245,40.5242291 L266.183344,60.4537445 C265.382846,62.5154185 264.582349,63.660793 262.066501,63.660793 C259.550653,63.660793 258.635799,62.4008811 257.949658,60.4537445 L249.944686,40.5242291 L249.944686,40.5242291 Z M282.536358,51.7488987 C283.108142,55.5286344 286.195774,57.3612335 289.740833,57.3612335 C293.628962,57.3612335 296.487881,54.2687225 298.431945,54.2687225 C300.261653,54.3832599 301.519577,55.8722467 301.519577,57.5903084 C301.519577,60.9118943 294.658173,64.1189427 289.054692,64.1189427 C280.36358,64.1189427 274.645743,57.8193833 274.645743,49.3436123 C274.645743,41.5550661 280.36358,34.4537445 288.482909,34.4537445 C296.830951,34.4537445 302.320075,42.1277533 302.320075,48.4273128 C302.320075,50.7180617 301.290864,51.8634361 299.003729,51.8634361 L282.536358,51.7488987 L282.536358,51.7488987 Z M294.543816,46.5947137 C294.086389,43.2731278 292.027968,40.6387665 288.368552,40.6387665 C284.823493,40.6387665 282.650715,43.1585903 282.193288,46.5947137 L294.543816,46.5947137 Z M338.456805,58.7356828 C338.456805,60.7973568 338.456805,63.7753304 334.79739,63.7753304 C332.510255,63.7753304 331.709758,62.5154185 331.137974,60.5682819 C329.308266,62.8590308 326.678061,64.1189427 323.933499,64.1189427 C316.729024,64.1189427 311.239901,57.9339207 311.239901,49.3436123 C311.239901,40.8678414 316.957738,34.4537445 323.933499,34.4537445 C326.792418,34.339207 329.536979,35.7136564 331.137974,38.0044053 C331.366687,36.1718062 332.967682,34.7973568 334.79739,34.7973568 C338.456805,34.7973568 338.456805,37.7753304 338.456805,39.8370044 L338.456805,58.7356828 L338.456805,58.7356828 Z M324.848353,57.0176211 C328.850839,57.0176211 330.794904,53.0088106 330.794904,49.3436123 C330.794904,45.6784141 328.850839,41.5550661 324.848353,41.5550661 C320.845867,41.5550661 318.673089,45.6784141 318.673089,49.3436123 C318.673089,53.0088106 320.73151,57.0176211 324.848353,57.0176211 Z M359.155376,43.2731278 C357.668738,43.2731278 354.80982,40.9823789 352.179615,40.9823789 C350.807334,40.9823789 349.663766,41.6696035 349.663766,43.1585903 C349.663766,46.7092511 363.043505,46.1365639 363.043505,55.0704846 C363.043505,60.2246696 358.697949,64.1189427 352.065258,64.1189427 C347.719702,64.1189427 341.315724,61.5991189 341.315724,58.1629956 C341.430081,56.3303965 342.916718,54.9559471 344.63207,54.7268722 C347.605345,54.7268722 348.977626,57.246696 352.522685,57.246696 C354.924177,57.246696 355.49596,56.4449339 355.49596,54.9559471 C355.49596,51.4052863 342.116221,51.9779736 342.116221,43.0440529 C342.116221,37.660793 346.461778,34.1101322 352.522685,34.1101322 C356.296457,34.1101322 362.128651,35.9427313 362.128651,39.722467 C362.243008,41.6696035 360.870727,43.1585903 359.155376,43.2731278 L359.155376,43.2731278 Z M370.819764,39.8370044 C370.59105,39.1497797 370.476694,38.4625551 370.476694,37.7753304 C370.705407,35.8281938 372.306401,34.4537445 374.021753,34.4537445 C375.851461,34.4537445 377.338098,35.5991189 377.909882,37.0881057 L383.170292,51.6343612 L388.888129,37.0881057 C389.459913,35.3700441 391.060907,34.339207 392.776259,34.4537445 C394.720323,34.4537445 396.206961,35.9427313 396.435674,37.7753304 C396.435674,38.4625551 396.321318,39.1497797 396.092604,39.8370044 L383.170292,72.0220264 C382.484152,73.6255507 381.340584,75 379.510876,75 C376.995028,75 375.50839,73.2819383 375.50839,71.6784141 C375.50839,70.876652 375.737104,70.0748899 375.965817,69.3876652 L379.282163,61.0264317 L370.819764,39.8370044 L370.819764,39.8370044 Z M425.02486,49.2290749 C425.02486,57.246696 419.535736,64.0044053 411.187694,64.0044053 C402.839652,64.0044053 397.350528,57.1321586 397.350528,49.2290749 C397.350528,41.4405286 403.068365,34.339207 411.187694,34.339207 C419.307023,34.2246696 425.02486,41.3259912 425.02486,49.2290749 L425.02486,49.2290749 Z M405.126787,49.2290749 C405.126787,52.8942731 407.070851,56.9030837 411.302051,56.9030837 C415.53325,56.9030837 417.477315,52.8942731 417.477315,49.2290749 C417.477315,45.5638767 415.53325,41.4405286 411.302051,41.4405286 C407.070851,41.3259912 405.126787,45.4493392 405.126787,49.2290749 Z M428.226849,38.9207048 C428.226849,36.4008811 429.827843,34.6828194 432.114978,34.6828194 C434.51647,34.6828194 435.888751,36.4008811 435.888751,38.9207048 L435.888751,52.6651982 C435.888751,55.4140969 438.175886,57.5903084 440.920447,57.5903084 C443.665009,57.5903084 445.837787,55.2995595 445.837787,52.6651982 L445.837787,38.9207048 C445.837787,36.4008811 447.438782,34.6828194 449.725917,34.6828194 C452.127408,34.6828194 453.614046,36.4008811 453.614046,38.9207048 L453.614046,52.7797357 C453.614046,59.6519824 449.039776,64.0044053 440.920447,64.0044053 C432.801119,64.0044053 428.341206,59.6519824 428.341206,52.7797357 L428.226849,38.9207048 Z M465.278434,29.0704846 C465.278434,26.7797357 467.108142,25.061674 469.28092,25.061674 C471.568055,25.061674 473.283406,26.8942731 473.283406,29.0704846 L473.283406,55.9867841 L482.775016,55.9867841 C484.833437,55.8722467 486.434431,57.4757709 486.548788,59.30837 L486.548788,59.7665198 C486.434431,61.8281938 484.71908,63.3171806 482.775016,63.3171806 L469.395277,63.3171806 C466.879428,63.3171806 465.278434,61.5991189 465.278434,58.9647577 L465.278434,29.0704846 Z M495.926041,27.2378855 C495.926041,29.7577093 493.981976,31.7048458 491.580485,31.7048458 C489.178993,31.5903084 487.234929,29.6431718 487.234929,27.2378855 C487.349285,24.8325991 489.407707,23 491.809198,23.1145374 C493.981976,23.2290749 495.811684,24.9471366 495.926041,27.2378855 Z M487.806712,38.9207048 C487.806712,36.4008811 489.407707,34.6828194 491.580485,34.6828194 C493.86762,34.6828194 495.468614,36.4008811 495.468614,38.9207048 L495.468614,59.5374449 C495.468614,62.0572687 493.86762,63.7753304 491.580485,63.7753304 C489.178993,63.7753304 487.806712,62.0572687 487.806712,59.5374449 L487.806712,38.9207048 Z M497.984462,40.5242291 C497.641392,39.8370044 497.527035,39.0352423 497.527035,38.2334802 C497.527035,36.1718062 499.242387,34.5682819 501.186451,34.4537445 L501.529521,34.4537445 C503.244873,34.4537445 504.502797,35.5991189 504.960224,37.0881057 L509.877564,52.3215859 L509.99192,52.3215859 L514.90926,37.0881057 C515.252331,35.4845815 516.738968,34.4537445 518.339963,34.4537445 C520.398384,34.339207 522.113735,35.8281938 522.342449,37.8898678 L522.342449,38.2334802 C522.342449,39.0352423 522.113735,39.8370044 521.885022,40.5242291 L514.22312,60.4537445 C513.422623,62.5154185 512.622126,63.660793 510.106277,63.660793 C507.590429,63.660793 506.675575,62.4008811 505.989434,60.4537445 L497.984462,40.5242291 L497.984462,40.5242291 Z M530.690491,51.7488987 C531.262275,55.5286344 534.349907,57.3612335 537.894966,57.3612335 C541.783095,57.3612335 544.642014,54.2687225 546.586078,54.2687225 C548.415786,54.3832599 549.67371,55.8722467 549.67371,57.5903084 C549.67371,60.9118943 542.812306,64.1189427 537.208825,64.1189427 C528.517713,64.1189427 522.799876,57.8193833 522.799876,49.3436123 C522.799876,41.5550661 528.517713,34.4537445 536.637042,34.4537445 C544.985084,34.4537445 550.474208,42.1277533 550.474208,48.4273128 C550.474208,50.7180617 549.444997,51.8634361 547.157862,51.8634361 L530.690491,51.7488987 L530.690491,51.7488987 Z M542.697949,46.5947137 C542.240522,43.2731278 540.182101,40.6387665 536.522685,40.6387665 C532.977626,40.6387665 530.804848,43.1585903 530.347421,46.5947137 L542.697949,46.5947137 L542.697949,46.5947137 Z M560.194531,24.6035242 C565.111871,24.6035242 569,28.6123348 569,33.4229075 C569,38.3480176 564.997514,42.2422907 560.194531,42.2422907 C555.391548,42.2422907 551.389062,38.2334802 551.389062,33.4229075 C551.389062,28.6123348 555.277191,24.6035242 560.194531,24.6035242 L560.194531,24.6035242 Z M560.194531,40.0660793 C563.853947,40.0660793 566.941579,37.0881057 566.941579,33.30837 C566.941579,29.5286344 563.968303,26.5506608 560.194531,26.5506608 C556.420758,26.5506608 553.447483,29.5286344 553.447483,33.30837 C553.447483,37.0881057 556.420758,40.0660793 560.194531,40.0660793 Z M558.936607,37.2026432 C558.936607,37.8898678 558.707893,38.3480176 557.793039,38.3480176 C556.878185,38.3480176 556.649472,38.0044053 556.649472,37.2026432 L556.649472,29.7577093 C556.649472,29.185022 556.878185,28.7268722 557.793039,28.7268722 L560.423244,28.7268722 C562.367309,28.7268722 563.968303,29.2995595 563.968303,31.4757709 C564.197017,32.7356828 563.282163,33.9955947 562.024239,33.9955947 L561.566812,33.9955947 L563.282163,36.7444934 C563.39652,36.8590308 563.39652,37.0881057 563.39652,37.2026432 C563.39652,37.7753304 563.053449,38.1189427 562.252952,38.1189427 C561.452455,38.1189427 561.223741,37.5462555 560.880671,36.9735683 L559.394034,34.2246696 L558.593536,34.2246696 L558.936607,37.2026432 L558.936607,37.2026432 Z M560.651958,32.7356828 C561.452455,32.7356828 561.909882,32.5066079 561.909882,31.5903084 C561.909882,30.6740088 561.452455,30.4449339 560.651958,30.4449339 L558.82225,30.4449339 L558.82225,32.6211454 L560.651958,32.7356828 Z" id="Shape" fill="#605B5E"></path>
            <path d="M119.644013,91.0504721 C116.111059,90.8188212 113.03397,93.3669814 112.578105,96.9575708 C109.38705,97.1892217 105.39823,97.3050472 100.611647,97.1892217 C100.155782,93.3669814 96.8507606,90.5871703 93.0898739,91.0504721 C89.3289872,91.513774 86.5937969,94.8727125 87.049662,98.8107783 C87.505527,102.633019 90.8105487,105.41283 94.5714353,104.949528 C97.0786931,104.602051 99.3580184,102.86467 100.269749,100.316509 C104.372534,100.54816 108.589286,100.54816 112.692071,100.084858 C113.831734,103.675448 117.592621,105.760306 121.239541,104.602051 C124.772495,103.443797 126.823888,99.6215565 125.684225,95.9151416 C124.772495,93.251156 122.379204,91.2821231 119.644013,91.0504721" id="Path" fill="#605B5E"></path>
            <path d="M156.887613,15.8891346 C132.423963,14.6320378 122.661473,33.145645 119.445594,41.9453225 C73.8490242,-50.8512765 -83.6141926,30.0600438 57.4250708,94.9719505 C85.3343062,107.771481 98.886939,126.627933 105.43355,140.227435 C111.291044,150.969898 109.683104,144.455851 108.075165,138.856056 C112.554425,131.199194 118.297066,124.342303 124.958529,118.628226 C140.578513,105.600132 165.386722,87.8864959 177.675974,70.0585778 C190.080078,52.3449413 188.93155,17.489076 156.887613,15.8891346 M131.045729,107.200074 C120.823828,114.856936 112.669277,124.685147 107.041489,135.999018 C95.0967959,101.371716 59.0330103,91.6577862 31.5831863,66.9729766 C13.6661463,50.973563 13.0918822,16.9176683 50.1893432,11.3178736 C73.1599072,7.88942778 103.710757,19.4318619 118.986183,42.9738562 C118.986183,42.9738562 119.560447,44.1166715 120.134711,43.4309823 C159.644081,-11.195587 203.288153,52.4592229 131.045729,107.200074" id="Shape" fill="#44B4E4"></path>
            <path d="M160.002297,38.3174779 C160.002297,38.3174779 159.888242,38.3174779 160.002297,38.3174779 L159.888242,38.0881444 C159.546075,37.7441441 158.975797,37.5148105 158.519575,37.6294773 L158.405519,37.6294773 C157.949297,37.6294773 157.60713,37.6294773 157.150907,37.7441441 L156.238463,37.9734776 L156.124407,37.9734776 C156.010352,37.9734776 147.114016,42.5601485 124.302898,42.5601485 C108.677283,42.3308149 93.1657228,40.7254801 77.7682185,37.8588108 C71.9513835,36.8268099 67.959438,36.1388092 65.5642706,35.7948089 C62.5988253,31.8961387 58.834991,28.5708023 54.7289898,26.0481333 L54.386823,25.8187998 C53.7024895,25.4747995 53.018156,25.2454659 52.3338225,25.1307992 C49.3683772,24.5574653 46.5169875,25.9334666 46.0607651,27.9974684 C45.6045428,30.1761371 47.771599,32.4694725 50.7370442,33.0428064 C52.1057113,33.3868067 53.4743783,33.1574732 54.7289898,32.5841393 C57.0101015,34.3041409 58.834991,36.253476 60.5458248,38.4321447 L60.5458248,38.6614782 L60.6598804,38.776145 L60.7739359,38.8908118 C65.5642706,44.9681507 72.0654391,56.5494946 76.7417182,77.7628474 C76.9698294,78.9095151 77.3119961,80.0561828 77.6541629,80.8588503 C77.9963297,81.8908512 77.9963297,83.0375189 77.8822741,84.0695199 C77.6541629,84.5281869 77.6541629,85.1015208 77.6541629,85.5601879 C77.8822741,87.0508559 79.3649967,88.0828569 80.7336638,87.9681901 C97.4998351,85.2161876 114.608173,85.2161876 131.4884,87.9681901 C132.971123,88.1975236 134.33979,87.1655227 134.567901,85.5601879 C134.681957,85.1015208 137.077124,69.9655069 160.344464,41.8721478 C161.370964,40.9548137 161.142853,39.3494789 160.002297,38.3174779 M130.804067,49.8988219 C136.849013,49.6694883 142.665848,48.9814877 148.596738,47.9494867 C144.604793,53.4534918 140.840958,59.1868304 137.533346,65.2641693 C134.567901,64.4615019 128.637011,63.7735013 119.85473,63.0855006 L119.85473,62.9708338 C120.653119,58.0401627 121.907731,50.4721557 122.249898,49.5548215 C125.215343,49.6694883 128.066733,49.7841551 130.804067,49.8988219 M82.1023308,77.7628474 C81.7601641,75.469512 81.1898861,72.8321762 80.5055526,69.9655069 C83.3569423,69.6215066 88.0332214,69.2775063 94.6484455,69.0481728 L94.6484455,73.4055101 C94.6484455,76.5015129 94.762501,78.7948484 94.762501,80.6295167 C90.6564999,80.973517 86.6645543,81.3175173 82.5585532,82.005518 C82.5585532,81.8908512 82.1023308,77.7628474 82.1023308,77.7628474 L82.1023308,77.7628474 Z M117.459563,49.2108212 C115.178451,53.338825 113.809784,57.8108291 113.011395,62.5121668 C108.905394,62.2828332 104.913448,62.0534997 100.921503,62.0534997 C100.693392,57.0081617 99.8950025,51.9628238 98.5263354,47.1468193 C104.799393,47.9494867 111.186506,48.7521541 117.459563,49.2108212 M92.8235561,46.2294852 L93.0516672,46.6881523 C93.9641119,48.6374874 94.4203343,53.7974921 94.762501,62.0534997 C89.4018884,61.9388329 84.1553314,62.3975 78.9087744,63.2001674 C76.7417182,55.6321605 73.7762729,48.6374874 69.8983829,41.8721478 C75.4871067,43.2481491 83.699109,44.8534839 92.8235561,46.2294852 M100.009058,80.5148499 C100.123114,79.9415161 100.237169,79.2535154 100.237169,78.5655148 C100.693392,75.469512 100.921503,72.2588424 101.035558,69.1628395 C104.34317,69.1628395 108.107005,69.1628395 111.984895,69.2775063 C111.642728,72.1441756 111.528672,75.2401784 111.528672,78.3361813 L111.528672,80.5148499 C107.650782,80.2855164 103.886948,80.4001832 100.009058,80.5148499 M129.549455,82.005518 C125.329399,81.3175173 121.109342,80.8588503 116.775229,80.6295167 C117.345507,78.2215145 118.029841,74.6668446 118.82823,69.2775063 C121.67962,69.3921731 124.759121,69.5068398 127.724566,69.7361734 C131.032178,69.9655069 133.31329,69.9655069 134.910068,70.0801737 C133.085178,73.9788439 131.260289,77.992181 129.549455,82.005518" id="Shape" fill="#605B5E"></path>
            <path d="M381.282998,82.709583 C396.926588,82.709583 408.231079,94.9073332 407.203398,110.867006 C406.06153,126.712682 394.071918,138.682437 377.971581,138.682437 C362.556366,138.682437 351.137687,126.598684 352.051181,110.753009 C353.307236,94.7933355 365.525222,82.709583 381.282998,82.709583 L381.282998,82.709583 Z M378.314142,133.324546 C390.075381,133.324546 400.352191,124.204733 401.265685,110.639011 C402.17918,97.4152818 393.158424,87.6114826 381.282998,87.6114826 C369.407573,87.6114826 359.244949,97.0732888 358.331454,110.639011 C357.41796,123.976738 366.552903,133.324546 378.314142,133.324546 Z M420.220692,111.322997 C422.390241,108.359058 426.729338,105.851109 431.068436,105.851109 C438.718951,105.851109 444.08573,111.550992 442.829675,119.530829 L440.317566,137.428462 L434.8366,137.428462 L437.234523,119.644827 C438.148017,113.260957 433.694732,110.297018 429.355635,110.297018 C425.587471,110.297018 419.992318,113.14696 419.193011,119.644827 L416.680901,137.428462 L411.314123,137.428462 L415.65322,106.76309 L418.50789,106.76309 L420.220692,111.322997 L420.220692,111.322997 Z M453.791606,137.428462 L448.310641,137.428462 L455.846969,83.735562 L460.871187,82.8235807 L461.442121,82.8235807 L453.791606,137.428462 Z M468.293328,106.76309 L473.660107,106.76309 L469.435196,137.428462 L464.068417,137.428462 L468.293328,106.76309 L468.293328,106.76309 Z M472.860799,90.0054336 C475.258722,90.0054336 477.08571,92.0573916 476.857337,94.3373449 C476.628963,96.8452935 474.687788,98.5552585 472.404052,98.5552585 C470.00613,98.5552585 468.179141,96.7312958 468.407515,94.3373449 C468.635888,91.8293962 470.462877,90.0054336 472.860799,90.0054336 Z M487.933455,111.322997 C490.103004,108.359058 494.442102,105.851109 498.7812,105.851109 C506.431714,105.851109 511.798493,111.550992 510.542438,119.530829 L508.030329,137.428462 L502.549363,137.428462 L504.947286,119.644827 C505.86078,113.260957 501.407496,110.297018 497.068398,110.297018 C493.300234,110.297018 487.705081,113.14696 486.905774,119.644827 L484.393665,137.428462 L479.026886,137.428462 L483.365984,106.76309 L486.220653,106.76309 L487.933455,111.322997 L487.933455,111.322997 Z M521.047623,121.810782 C520.933436,122.266773 520.933436,122.722763 520.933436,123.178754 C520.933436,130.132612 526.756962,134.008532 532.923048,134.008532 C536.462838,134.008532 539.545882,132.982553 542.286364,131.158591 C543.085672,132.298567 543.884979,133.666539 544.684287,134.692518 C541.715431,137.200467 537.604706,138.340444 532.237927,138.340444 C522.874611,138.340444 515.79503,131.614581 515.79503,123.064756 C515.79503,112.576971 523.902292,105.737111 532.808861,105.737111 C541.715431,105.737111 547.082209,112.918964 546.282902,121.810782 L521.047623,121.810782 L521.047623,121.810782 Z M540.916123,118.048859 C540.916123,113.60295 537.033772,110.18302 532.352114,110.18302 C526.642775,110.18302 522.532051,114.970922 521.84693,118.048859 L540.916123,118.048859 Z M553.134109,160 C565.123721,148.144243 578.026828,137.428462 590.359001,126.256691 C596.525087,120.556808 602.576987,114.970922 608.286326,108.929046 C614.109852,103.115165 619.362444,96.7312958 624.158289,90.1194313 C626.442025,86.9274966 628.269013,83.393569 629.753441,79.7456437 C631.23787,76.0977184 632.265551,72.2217978 633.064858,68.3458772 C634.663473,60.594036 634.663473,52.5002018 632.722298,44.7483605 C630.895309,36.9965193 626.556212,30.0426617 620.504312,24.9127668 C617.421269,22.4048182 613.767292,20.3528602 609.884941,18.9848882 C606.00259,17.5029186 602.006053,16.4769396 597.895329,16.0209489 C602.12024,15.9069513 606.345151,16.2489442 610.455875,17.2749232 C614.680786,18.3009022 618.677323,19.8968695 622.3313,22.2908205 C625.985278,24.7987691 629.296694,27.8767061 631.808804,31.4106337 C634.320913,35.058559 636.376275,39.0484773 637.63233,43.3803886 C639.002571,47.5983022 639.687692,51.9302134 639.916065,56.3761224 C640.144439,60.7080337 639.916065,65.1539426 639.116758,69.4858539 C637.746516,78.2636741 634.4351,86.6995013 629.410881,93.9953519 C619.362444,108.131062 606.687711,119.530829 593.670418,130.246609 C580.538937,140.96239 566.836523,150.310198 553.134109,160 Z" id="Shape" fill="#44B4E4"></path>
        </g>
    </g>
</svg>