<?xml version="1.0" encoding="UTF-8"?>
<svg width="561px" height="140px" viewBox="0 0 561 140" version="1.1" xmlns="http://www.w3.org/2000/svg" xmlns:xlink="http://www.w3.org/1999/xlink">
    <title>online</title>
    <g id="Page-1" stroke="none" stroke-width="1" fill="none" fill-rule="evenodd">
        <g id="640" transform="translate(-21.000000, -128.000000)">
            <g id="online" transform="translate(21.000000, 128.000000)">
                <path d="M202.5,35.6 C205.4,35.6 206.6,37.1 206.6,40.1 C206.6,49.1 200.7,55.9 191.4,55.9 C182.1,55.9 175.3,48.4 175.3,38.7 C175.3,29 181.8,21.5 191.4,21.5 C198.4,21.5 204.3,24.8 204.3,28.2 C204.5,29.8 203.3,31.2 201.8,31.4 L201.4,31.4 C198.2,31.4 197.6,28 191.4,28 C185.5,28 182.6,33.1 182.6,38.8 C182.6,44.5 185.4,49.6 191.4,49.6 C195.1,49.6 199.3,47.5 199.3,42.2 L194.5,42.2 C192.7,42.3 191.2,40.9 191.1,39.2 C191,37.4 192.4,35.9 194.1,35.8 L202.5,35.6 Z M216.3,23.8 C216.3,26 214.6,27.7 212.5,27.7 C210.4,27.6 208.7,25.9 208.7,23.8 C208.8,21.7 210.5,20.2 212.5,20.1 C214.6,20.2 216.2,21.7 216.3,23.8 Z M209.2,34 C209.2,31.8 210.6,30.3 212.5,30.3 C214.5,30.3 215.8,31.8 215.8,34 L215.8,52 C215.8,54.2 214.4,55.7 212.5,55.7 C210.5,55.7 209.2,54.2 209.2,52 L209.2,34 Z M218.1,35.4 C217.8,34.8 217.7,34.1 217.7,33.4 C217.7,31.6 219.2,30.2 220.9,30.1 L221.2,30.1 C222.7,30.1 223.8,31.1 224.2,32.4 L228.5,45.7 L228.6,45.7 L232.9,32.4 C233.2,31 234.5,30.1 235.9,30.1 C237.7,30 239.2,31.3 239.4,33.1 L239.4,33.4 C239.4,34.1 239.2,34.8 239,35.4 L232.3,52.8 C231.6,54.6 230.9,55.6 228.7,55.6 C226.5,55.6 225.7,54.5 225.1,52.8 L218.1,35.4 L218.1,35.4 Z M246.6,45.2 C247.1,48.5 249.8,50.1 252.9,50.1 C256.3,50.1 258.8,47.4 260.5,47.4 C262.1,47.5 263.2,48.8 263.2,50.3 C263.2,53.2 257.2,56 252.3,56 C244.7,56 239.7,50.5 239.7,43.1 C239.7,36.3 244.7,30.1 251.8,30.1 C259.1,30.1 263.9,36.8 263.9,42.3 C263.9,44.3 263,45.3 261,45.3 L246.6,45.2 L246.6,45.2 Z M257.1,40.7 C256.7,37.8 254.9,35.5 251.7,35.5 C248.6,35.5 246.7,37.7 246.3,40.7 L257.1,40.7 Z M295.5,51.3 C295.5,53.1 295.5,55.7 292.3,55.7 C290.3,55.7 289.6,54.6 289.1,52.9 C287.5,54.9 285.2,56 282.8,56 C276.5,56 271.7,50.6 271.7,43.1 C271.7,35.7 276.7,30.1 282.8,30.1 C285.3,30 287.7,31.2 289.1,33.2 C289.3,31.6 290.7,30.4 292.3,30.4 C295.5,30.4 295.5,33 295.5,34.8 L295.5,51.3 L295.5,51.3 Z M283.6,49.8 C287.1,49.8 288.8,46.3 288.8,43.1 C288.8,39.9 287.1,36.3 283.6,36.3 C280.1,36.3 278.2,39.9 278.2,43.1 C278.2,46.3 280,49.8 283.6,49.8 Z M313.6,37.8 C312.3,37.8 309.8,35.8 307.5,35.8 C306.3,35.8 305.3,36.4 305.3,37.7 C305.3,40.8 317,40.3 317,48.1 C317,52.6 313.2,56 307.4,56 C303.6,56 298,53.8 298,50.8 C298.1,49.2 299.4,48 300.9,47.8 C303.5,47.8 304.7,50 307.8,50 C309.9,50 310.4,49.3 310.4,48 C310.4,44.9 298.7,45.4 298.7,37.6 C298.7,32.9 302.5,29.8 307.8,29.8 C311.1,29.8 316.2,31.4 316.2,34.7 C316.3,36.4 315.1,37.7 313.6,37.8 L313.6,37.8 Z M323.8,34.8 C323.6,34.2 323.5,33.6 323.5,33 C323.7,31.3 325.1,30.1 326.6,30.1 C328.2,30.1 329.5,31.1 330,32.4 L334.6,45.1 L339.6,32.4 C340.1,30.9 341.5,30 343,30.1 C344.7,30.1 346,31.4 346.2,33 C346.2,33.6 346.1,34.2 345.9,34.8 L334.6,62.9 C334,64.3 333,65.5 331.4,65.5 C329.2,65.5 327.9,64 327.9,62.6 C327.9,61.9 328.1,61.2 328.3,60.6 L331.2,53.3 L323.8,34.8 L323.8,34.8 Z M371.2,43 C371.2,50 366.4,55.9 359.1,55.9 C351.8,55.9 347,49.9 347,43 C347,36.2 352,30 359.1,30 C366.2,29.9 371.2,36.1 371.2,43 L371.2,43 Z M353.8,43 C353.8,46.2 355.5,49.7 359.2,49.7 C362.9,49.7 364.6,46.2 364.6,43 C364.6,39.8 362.9,36.2 359.2,36.2 C355.5,36.1 353.8,39.7 353.8,43 Z M374,34 C374,31.8 375.4,30.3 377.4,30.3 C379.5,30.3 380.7,31.8 380.7,34 L380.7,46 C380.7,48.4 382.7,50.3 385.1,50.3 C387.5,50.3 389.4,48.3 389.4,46 L389.4,34 C389.4,31.8 390.8,30.3 392.8,30.3 C394.9,30.3 396.2,31.8 396.2,34 L396.2,46.1 C396.2,52.1 392.2,55.9 385.1,55.9 C378,55.9 374.1,52.1 374.1,46.1 L374,34 Z M406.4,25.4 C406.4,23.4 408,21.9 409.9,21.9 C411.9,21.9 413.4,23.5 413.4,25.4 L413.4,48.9 L421.7,48.9 C423.5,48.8 424.9,50.2 425,51.8 L425,52.2 C424.9,54 423.4,55.3 421.7,55.3 L410,55.3 C407.8,55.3 406.4,53.8 406.4,51.5 L406.4,25.4 Z M433.2,23.8 C433.2,26 431.5,27.7 429.4,27.7 C427.3,27.6 425.6,25.9 425.6,23.8 C425.7,21.7 427.5,20.1 429.6,20.2 C431.5,20.3 433.1,21.8 433.2,23.8 Z M426.1,34 C426.1,31.8 427.5,30.3 429.4,30.3 C431.4,30.3 432.8,31.8 432.8,34 L432.8,52 C432.8,54.2 431.4,55.7 429.4,55.7 C427.3,55.7 426.1,54.2 426.1,52 L426.1,34 Z M435,35.4 C434.7,34.8 434.6,34.1 434.6,33.4 C434.6,31.6 436.1,30.2 437.8,30.1 L438.1,30.1 C439.6,30.1 440.7,31.1 441.1,32.4 L445.4,45.7 L445.5,45.7 L449.8,32.4 C450.1,31 451.4,30.1 452.8,30.1 C454.6,30 456.1,31.3 456.3,33.1 L456.3,33.4 C456.3,34.1 456.1,34.8 455.9,35.4 L449.2,52.8 C448.5,54.6 447.8,55.6 445.6,55.6 C443.4,55.6 442.6,54.5 442,52.8 L435,35.4 L435,35.4 Z M463.6,45.2 C464.1,48.5 466.8,50.1 469.9,50.1 C473.3,50.1 475.8,47.4 477.5,47.4 C479.1,47.5 480.2,48.8 480.2,50.3 C480.2,53.2 474.2,56 469.3,56 C461.7,56 456.7,50.5 456.7,43.1 C456.7,36.3 461.7,30.1 468.8,30.1 C476.1,30.1 480.9,36.8 480.9,42.3 C480.9,44.3 480,45.3 478,45.3 L463.6,45.2 L463.6,45.2 Z M474.1,40.7 C473.7,37.8 471.9,35.5 468.7,35.5 C465.6,35.5 463.7,37.7 463.3,40.7 L474.1,40.7 L474.1,40.7 Z M489.4,21.5 C493.7,21.5 497.1,25 497.1,29.2 C497.1,33.5 493.6,36.9 489.4,36.9 C485.2,36.9 481.7,33.4 481.7,29.2 C481.7,25 485.1,21.5 489.4,21.5 L489.4,21.5 Z M489.4,35 C492.6,35 495.3,32.4 495.3,29.1 C495.3,25.8 492.7,23.2 489.4,23.2 C486.1,23.2 483.5,25.8 483.5,29.1 C483.5,32.4 486.1,35 489.4,35 Z M488.3,32.5 C488.3,33.1 488.1,33.5 487.3,33.5 C486.5,33.5 486.3,33.2 486.3,32.5 L486.3,26 C486.3,25.5 486.5,25.1 487.3,25.1 L489.6,25.1 C491.3,25.1 492.7,25.6 492.7,27.5 C492.9,28.6 492.1,29.7 491,29.7 L490.6,29.7 L492.1,32.1 C492.2,32.2 492.2,32.4 492.2,32.5 C492.2,33 491.9,33.3 491.2,33.3 C490.5,33.3 490.3,32.8 490,32.3 L488.7,29.9 L488,29.9 L488.3,32.5 L488.3,32.5 Z M489.8,28.6 C490.5,28.6 490.9,28.4 490.9,27.6 C490.9,26.8 490.5,26.6 489.8,26.6 L488.2,26.6 L488.2,28.5 L489.8,28.6 Z" id="Shape" fill="#605B5E" fill-rule="nonzero"></path>
                <path d="M104,79.7 C100.9,79.5 98.2,81.7 97.8,84.8 C95,85 91.5,85.1 87.3,85 C86.9,81.7 84,79.3 80.7,79.7 C77.4,80.1 75,83 75.4,86.4 C75.8,89.7 78.7,92.1 82,91.7 C84.2,91.4 86.2,89.9 87,87.7 C90.6,87.9 94.3,87.9 97.9,87.5 C98.9,90.6 102.2,92.4 105.4,91.4 C108.5,90.4 110.3,87.1 109.3,83.9 C108.5,81.6 106.4,79.9 104,79.7" id="Path" fill="#605B5E" fill-rule="nonzero"></path>
                <path d="M136.6,13.9 C115.3,12.8 106.8,29 104,36.7 C64.3,-44.5 -72.8,26.3 50,83.1 C74.3,94.3 86.1,110.8 91.8,122.7 C96.9,132.1 95.5,126.4 94.1,121.5 C98,114.8 103,108.8 108.8,103.8 C122.4,92.4 144,76.9 154.7,61.3 C165.5,45.8 164.5,15.3 136.6,13.9 M114.1,93.8 C105.2,100.5 98.1,109.1 93.2,119 C82.8,88.7 51.4,80.2 27.5,58.6 C11.9,44.6 11.4,14.8 43.7,9.9 C63.7,6.9 90.3,17 103.6,37.6 C103.6,37.6 104.1,38.6 104.6,38 C139,-9.8 177,45.9 114.1,93.8" id="Shape" fill="#44B4E4"></path>
                <path d="M139.8,33.1 C139.8,33.1 139.7,33.1 139.8,33.1 L139.7,32.9 C139.4,32.6 138.9,32.4 138.5,32.5 L138.4,32.5 C138,32.5 137.7,32.5 137.3,32.6 L136.5,32.8 L136.4,32.8 C136.3,32.8 128.5,36.8 108.5,36.8 C94.8,36.6 81.2,35.2 67.7,32.7 C62.6,31.8 59.1,31.2 57,30.9 C54.4,27.5 51.1,24.6 47.5,22.4 L47.2,22.2 C46.6,21.9 46,21.7 45.4,21.6 C42.8,21.1 40.3,22.3 39.9,24.1 C39.5,26 41.4,28 44,28.5 C45.2,28.8 46.4,28.6 47.5,28.1 C49.5,29.6 51.1,31.3 52.6,33.2 L52.6,33.4 L52.7,33.5 L52.8,33.6 C57,38.9 62.7,49 66.8,67.5 C67,68.5 67.3,69.5 67.6,70.2 C67.9,71.1 67.9,72.1 67.8,73 C67.6,73.4 67.6,73.9 67.6,74.3 C67.8,75.6 69.1,76.5 70.3,76.4 C85,74 100,74 114.8,76.4 C116.1,76.6 117.3,75.7 117.5,74.3 C117.6,73.9 119.7,60.7 140.1,36.2 C141,35.4 140.8,34 139.8,33.1 M114.2,43.2 C119.5,43 124.6,42.4 129.8,41.5 C126.3,46.3 123,51.3 120.1,56.6 C117.5,55.9 112.3,55.3 104.6,54.7 L104.6,54.6 C105.3,50.3 106.4,43.7 106.7,42.9 C109.3,43 111.8,43.1 114.2,43.2 M71.5,67.5 C71.2,65.5 70.7,63.2 70.1,60.7 C72.6,60.4 76.7,60.1 82.5,59.9 L82.5,63.7 C82.5,66.4 82.6,68.4 82.6,70 C79,70.3 75.5,70.6 71.9,71.2 C71.9,71.1 71.5,67.5 71.5,67.5 L71.5,67.5 Z M102.5,42.6 C100.5,46.2 99.3,50.1 98.6,54.2 C95,54 91.5,53.8 88,53.8 C87.8,49.4 87.1,45 85.9,40.8 C91.4,41.5 97,42.2 102.5,42.6 M80.9,40 L81.1,40.4 C81.9,42.1 82.3,46.6 82.6,53.8 C77.9,53.7 73.3,54.1 68.7,54.8 C66.8,48.2 64.2,42.1 60.8,36.2 C65.7,37.4 72.9,38.8 80.9,40 M87.2,69.9 C87.3,69.4 87.4,68.8 87.4,68.2 C87.8,65.5 88,62.7 88.1,60 C91,60 94.3,60 97.7,60.1 C97.4,62.6 97.3,65.3 97.3,68 L97.3,69.9 C93.9,69.7 90.6,69.8 87.2,69.9 M113.1,71.2 C109.4,70.6 105.7,70.2 101.9,70 C102.4,67.9 103,64.8 103.7,60.1 C106.2,60.2 108.9,60.3 111.5,60.5 C114.4,60.7 116.4,60.7 117.8,60.8 C116.2,64.2 114.6,67.7 113.1,71.2" id="Shape" fill="#605B5E" fill-rule="nonzero"></path>
                <path d="M333.5,72.2 C347.2,72.2 357.1,82.9 356.2,96.9 C355.2,110.8 344.7,121.3 330.6,121.3 C317.1,121.3 307.1,110.7 307.9,96.8 C309,82.8 319.7,72.2 333.5,72.2 L333.5,72.2 Z M330.9,116.6 C341.2,116.6 350.2,108.6 351,96.7 C351.8,85.1 343.9,76.5 333.5,76.5 C323.1,76.5 314.2,84.8 313.4,96.7 C312.6,108.4 320.6,116.6 330.9,116.6 Z M367.6,97.3 C369.5,94.7 373.3,92.5 377.1,92.5 C383.8,92.5 388.5,97.5 387.4,104.5 L385.2,120.2 L380.4,120.2 L382.5,104.6 C383.3,99 379.4,96.4 375.6,96.4 C372.3,96.4 367.4,98.9 366.7,104.6 L364.5,120.2 L359.8,120.2 L363.6,93.3 L366.1,93.3 L367.6,97.3 L367.6,97.3 Z M397,120.2 L392.2,120.2 L398.8,73.1 L403.2,72.3 L403.7,72.3 L397,120.2 Z M409.7,93.3 L414.4,93.3 L410.7,120.2 L406,120.2 L409.7,93.3 L409.7,93.3 Z M413.7,78.6 C415.8,78.6 417.4,80.4 417.2,82.4 C417,84.6 415.3,86.1 413.3,86.1 C411.2,86.1 409.6,84.5 409.8,82.4 C410,80.2 411.6,78.6 413.7,78.6 Z M426.9,97.3 C428.8,94.7 432.6,92.5 436.4,92.5 C443.1,92.5 447.8,97.5 446.7,104.5 L444.5,120.2 L439.7,120.2 L441.8,104.6 C442.6,99 438.7,96.4 434.9,96.4 C431.6,96.4 426.7,98.9 426,104.6 L423.8,120.2 L419.1,120.2 L422.9,93.3 L425.4,93.3 L426.9,97.3 L426.9,97.3 Z M455.9,106.5 C455.8,106.9 455.8,107.3 455.8,107.7 C455.8,113.8 460.9,117.2 466.3,117.2 C469.4,117.2 472.1,116.3 474.5,114.7 C475.2,115.7 475.9,116.9 476.6,117.8 C474,120 470.4,121 465.7,121 C457.5,121 451.3,115.1 451.3,107.6 C451.3,98.4 458.4,92.4 466.2,92.4 C474,92.4 478.7,98.7 478,106.5 L455.9,106.5 L455.9,106.5 Z M473.3,103.2 C473.3,99.3 469.9,96.3 465.8,96.3 C460.8,96.3 457.2,100.5 456.6,103.2 L473.3,103.2 Z M484,140 C494.5,129.6 505.8,120.2 516.6,110.4 C522,105.4 527.3,100.5 532.3,95.2 C537.4,90.1 542,84.5 546.2,78.7 C548.2,75.9 549.8,72.8 551.1,69.6 C552.4,66.4 553.3,63 554,59.6 C555.4,52.8 555.4,45.7 553.7,38.9 C552.1,32.1 548.3,26 543,21.5 C540.3,19.3 537.1,17.5 533.7,16.3 C530.3,15 526.8,14.1 523.2,13.7 C526.9,13.6 530.6,13.9 534.2,14.8 C537.9,15.7 541.4,17.1 544.6,19.2 C547.8,21.4 550.7,24.1 552.9,27.2 C555.1,30.4 556.9,33.9 558,37.7 C559.2,41.4 559.8,45.2 560,49.1 C560.2,52.9 560,56.8 559.3,60.6 C558.1,68.3 555.2,75.7 550.8,82.1 C542,94.5 530.9,104.5 519.5,113.9 C508,123.3 496,131.5 484,140 Z" id="Shape" fill="#44B4E4" fill-rule="nonzero"></path>
            </g>
        </g>
    </g>
</svg>