<?xml version="1.0" encoding="UTF-8"?>
<svg width="829px" height="246px" viewBox="0 0 829 246" version="1.1" xmlns="http://www.w3.org/2000/svg" xmlns:xlink="http://www.w3.org/1999/xlink">
    <title>Custom Preset 2</title>
    <g id="Custom-Preset-2" stroke="none" stroke-width="1" fill="none" fill-rule="evenodd">
        <rect fill="#AD29B6" x="0" y="0" width="829" height="246"></rect>
        <g id="Group" transform="translate(55.000000, 22.000000)" fill="#FFFFFF">
            <g id="G-5" transform="translate(0.000000, 44.000000)" fill-rule="nonzero">
                <g id="G-4">
                    <g id="G-3">
                        <g id="G-2">
                            <g id="G">
                                <path d="M115.8,45.9 L74.9,45.9 L51,69.7 L83.8,69.7 C79.5,79.3 69.9,86 58.7,86 C43.5,86 31.2,73.7 31.2,58.5 C31.2,43.3 43.5,31 58.7,31 C64.2,31 69.3,32.6 73.6,35.4 L95.7,13.3 C85.6,5 72.7,0 58.5,0 C26.2,0 -7.10542736e-15,26.2 -7.10542736e-15,58.5 C-7.10542736e-15,90.8 26.2,117 58.5,117 C90.8,117 117,90.8 117,58.5 C117.2,54.2 116.7,49.9 115.8,45.9" id="Path"></path>
                            </g>
                        </g>
                    </g>
                </g>
            </g>
            <text id="Donate-to-RSPCA-Camb" font-family="Arial-BoldMT, Arial" font-size="60" font-weight="bold">
                <tspan x="172" y="54">Donate to</tspan>
                <tspan x="172" y="121" font-family="ArialMT, Arial" font-weight="normal">RSPCA Cambrige</tspan>
                <tspan x="172" y="188" font-family="ArialMT, Arial" font-weight="normal">and District Branch</tspan>
            </text>
        </g>
    </g>
</svg>