<?xml version="1.0" encoding="UTF-8"?>
<svg width="177px" height="30px" viewBox="0 0 177 30" version="1.1" xmlns="http://www.w3.org/2000/svg" xmlns:xlink="http://www.w3.org/1999/xlink">
    <title>JustGiving-logo-SVG-RGB</title>
    <g id="Page-2" stroke="none" stroke-width="1" fill="none" fill-rule="evenodd">
        <g id="Custom-Preset-2" transform="translate(-409.000000, -67.000000)" fill="#FFFFFF" fill-rule="nonzero">
            <g id="JustGiving-logo-SVG-RGB" transform="translate(409.000000, 67.000000)">
                <rect id="Rectangle" x="95" y="6" width="6" height="18"></rect>
                <path d="M92.7343356,9.80769231 L83.9982879,9.80769231 L78.8933602,14.8931624 L85.899286,14.8931624 C84.9808263,16.9444444 82.9303114,18.3760684 80.538044,18.3760684 C77.2913955,18.3760684 74.6641733,15.7478632 74.6641733,12.5 C74.6641733,9.25213675 77.2913955,6.62393162 80.538044,6.62393162 C81.7128182,6.62393162 82.8021542,6.96581197 83.720614,7.56410256 L88.4410701,2.84188034 C86.2837576,1.06837607 83.5283782,0 80.495325,0 C73.5961968,0 68,5.5982906 68,12.5 C68,19.4017094 73.5961968,25 80.495325,25 C87.3944531,25 92.99065,19.4017094 92.99065,12.5 C93.033369,11.5811966 92.9265714,10.6623932 92.7343356,9.80769231" id="Path"></path>
                <rect id="Rectangle" x="95" y="1" width="6" height="4"></rect>
                <polygon id="Path" points="114.659574 24 109.340426 24 109.297872 23.877551 102 6 108.574468 6 112.042553 15.9183673 115.531915 6 122 6"></polygon>
                <rect id="Rectangle" x="123" y="6" width="6" height="18"></rect>
                <rect id="Rectangle" x="123" y="1" width="6" height="4"></rect>
                <path d="M149,24 L142.91202,24 L142.91202,14.1818182 C142.91202,12.3434343 142.111524,11.3939394 140.552664,11.3939394 C138.530359,11.3939394 138.109046,12.9090909 138.109046,14.1818182 L138.109046,24 L132,24 L132,6.3030303 L136.213135,6.3030303 L137.877323,7.8989899 C139.204461,6.60606061 140.72119,6 142.532838,6 C146.51425,6 148.978934,8.56565657 148.978934,12.7070707 L149,24 L149,24 Z" id="Path"></path>
                <path d="M7.79899497,26 C4.7638191,26 2.25125628,24.7521891 0.32160804,22.2784588 L0,21.8625219 L3.93969849,17.5718039 L4.16080402,17.8345009 C5.40703518,19.3231173 6.45226131,19.9579685 7.65829146,19.9579685 C9.22613065,19.9579685 9.96984925,18.9290718 9.96984925,16.7180385 L9.96984925,1 L16,1 L16,16.9369527 C16,22.6943958 13.0050251,26 7.79899497,26" id="Path"></path>
                <path d="M164.488069,5.34305317 L162.882863,6.9296741 C161.364425,5.62178388 159.672451,5 157.56833,5 C153.316703,5 149,8.04459691 149,13.85506 L149,13.9193825 C149,19.7512864 153.316703,22.7958834 157.56833,22.7958834 C159.585683,22.7958834 161.169197,22.238422 162.62256,20.9948542 C162.362256,23.203259 160.995662,24.6826758 158.284165,24.6826758 C156.657267,24.6826758 155.247289,24.3825043 153.772234,23.7392796 L149.672451,27.7915952 L150.236443,28.0917667 C152.62256,29.3353345 155.442516,30 158.414317,30 C165.637744,30 169,26.35506 169,19.5797599 L169,5.34305317 L164.488069,5.34305317 Z M163.078091,13.9408233 C163.078091,16.1063465 161.386117,17.6715266 159.043384,17.6715266 C156.678959,17.6715266 155.052061,16.1277873 155.052061,13.9408233 L155.052061,13.8765009 C155.052061,11.7109777 156.744035,10.1457976 159.043384,10.1457976 C161.386117,10.1457976 163.078091,11.7109777 163.078091,13.8765009 L163.078091,13.9408233 Z" id="Shape"></path>
                <path d="M25.4381188,24 C21.4616337,24 19,21.4343434 19,17.2727273 L19,6 L25.0804455,6 L25.0804455,15.7979798 C25.0804455,17.6565657 25.8799505,18.5858586 27.4368812,18.5858586 C29.4777228,18.5858586 29.8985149,17.0707071 29.8985149,15.7979798 L29.8985149,6 L36,6 L36,23.6969697 L31.7710396,23.6969697 L30.1089109,22.1010101 C28.7623762,23.3737374 27.2475248,24 25.4381188,24" id="Path"></path>
                <path d="M61.5647668,26 C57.8549223,26 56.0310881,24.0263158 56.0310881,19.9692982 L56.0310881,12.1184211 L54,12.1184211 L54,6.50438596 L56.0310881,6.50438596 L56.0310881,1 L62.0207254,1 L62.0207254,6.50438596 L66,6.50438596 L66,12.1184211 L62.0207254,12.1184211 L62.0207254,19.1578947 C62.0207254,20.0131579 62.2487047,20.2763158 62.9740933,20.2763158 C63.7202073,20.2763158 64.4248705,20.1008772 65.0673575,19.7061404 L65.9378238,19.2017544 L65.9378238,24.7061404 L65.6476684,24.8815789 C64.4248705,25.6491228 63.1398964,26 61.5647668,26" id="Path"></path>
                <path d="M47.4931507,13.2659341 L46.9383562,13.078022 C45.5616438,12.5978022 44.2260274,12.1593407 44.2260274,11.5538462 L44.2260274,11.4912088 C44.2260274,10.9065934 44.9452055,10.6769231 45.6438356,10.6769231 C46.5890411,10.6769231 47.8835616,11.0736264 49.260274,11.7835165 L52.6917808,8.2967033 L52.4246575,8.10879121 C50.4931507,6.79340659 48.0068493,6 45.7465753,6 C41.7191781,6 39.0068493,8.4010989 39.0068493,11.9923077 L39.0068493,12.0549451 C39.0068493,15.6252747 41.760274,16.9197802 44.4520548,17.7340659 C44.6780822,17.7967033 44.9041096,17.8802198 45.109589,17.9428571 C46.5273973,18.3604396 47.760274,18.7362637 47.760274,19.3835165 L47.760274,19.4461538 C47.760274,20.1769231 46.8561644,20.343956 46.0958904,20.343956 C44.6575342,20.343956 42.9315068,19.7175824 41.3082192,18.6318681 L38.0410959,21.9516484 L38,22.0142857 L38.2876712,22.243956 C40.5068493,24.0186813 43.2191781,25 45.9726027,25 C50.369863,25 53,22.7241758 53,18.9032967 L53,18.8406593 C53,15.1241758 49.4246575,13.9131868 47.4931507,13.2659341" id="Path"></path>
                <polygon id="Path" points="170 5.85714286 170.953488 5.85714286 170.953488 8 172.046512 8 172.046512 5.85714286 173 5.85714286 173 5 170 5"></polygon>
                <polygon id="Path" points="176.082803 5 175.490446 6.05 174.917197 5 174 5 174 8 174.878981 8 174.878981 6.5 175.280255 7.20714286 175.700637 7.20714286 176.121019 6.5 176.121019 8 177 8 177 5"></polygon>
            </g>
        </g>
    </g>
</svg>